<svg width="300" height="64" viewBox="0 0 300 64" fill="none" xmlns="http://www.w3.org/2000/svg" role="img" aria-label="국유공간든든">
  <path d="M32 6C21.5 6 13 14.5 13 25c0 13.3 16.6 29.4 17.3 30.1a2.4 2.4 0 0 0 3.4 0C34.4 54.4 51 38.3 51 25 51 14.5 42.5 6 32 6Z" fill="#1f5fff"/>
  <path d="M25 33V25a7 7 0 0 1 14 0v8" stroke="#fff" stroke-width="3.1" stroke-linecap="round"/>
  <rect x="29.5" y="28.5" width="5" height="6" rx="1" fill="#fff"/>
  <circle cx="44" cy="39.5" r="8" fill="#15a06a" stroke="#fff" stroke-width="2.2"/>
  <path d="M40.4 39.6l2.5 2.5 4.4-4.6" stroke="#fff" stroke-width="2.3" stroke-linecap="round" stroke-linejoin="round"/>
  <text x="68" y="40" font-family="Pretendard, system-ui, sans-serif" font-size="27" font-weight="800" fill="#0b3bb0" letter-spacing="-1">국유공간든든</text>
  <text x="68" y="55" font-family="Pretendard, system-ui, sans-serif" font-size="11" font-weight="500" fill="#6b7686" letter-spacing="0.5">비어있는 국유공간을, 창업할 자리로</text>
</svg>
